<?xml version="1.0" encoding="utf-8"?>
<!-- Generator: Adobe Illustrator 26.0.3, SVG Export Plug-In . SVG Version: 6.00 Build 0)  -->
<svg version="1.0" id="Layer_1" xmlns="http://www.w3.org/2000/svg" xmlns:xlink="http://www.w3.org/1999/xlink" x="0px" y="0px"
	 viewBox="0 0 376 278" style="enable-background:new 0 0 376 278;" xml:space="preserve">
<style type="text/css">
	.st0{clip-path:url(#SVGID_00000028296546859995031890000001293998393209124518_);}
	.st1{fill:#2E3192;}
	.st2{fill-rule:evenodd;clip-rule:evenodd;fill:#2E3192;}
</style>
<g>
	<defs>
		<rect id="SVGID_1_" x="73.2" y="20.5" width="229.6" height="237"/>
	</defs>
	<clipPath id="SVGID_00000171718827258790553270000016442812544209394108_">
		<use xlink:href="#SVGID_1_"  style="overflow:visible;"/>
	</clipPath>
	<g style="clip-path:url(#SVGID_00000171718827258790553270000016442812544209394108_);">
		<path class="st1" d="M285.4,141.5h-2.6v-2.2h2.6V141.5z M273.6,150.1l8.8,1l0.2-1.7c0.1-0.5,0.1-1.1,0-1.6l-0.5-0.9
			c-0.4-0.3-0.8-0.5-1.2-0.7c-0.7-0.2-1.5-0.4-2.3-0.4c-0.8-0.1-1.6-0.1-2.4,0c-0.5,0-1,0.2-1.4,0.5l-0.8,1
			c-0.2,0.6-0.3,1.2-0.3,1.8L273.6,150.1z M271.1,152.1l0.4-4.1c0-0.8,0.2-1.6,0.6-2.3c0.3-0.6,0.8-1,1.3-1.4
			c0.7-0.4,1.4-0.7,2.2-0.8c1.1-0.2,2.2-0.2,3.2,0c1,0.1,2,0.3,3,0.7c0.7,0.3,1.4,0.7,1.9,1.2c0.5,0.4,0.8,1,1,1.6
			c0.2,0.7,0.3,1.5,0.1,2.3l-0.4,4.2L271.1,152.1L271.1,152.1z M282.8,161.1l-10.9-2.6l-0.7,3.3l-2.2-0.5l2-8.7l2.2,0.5l-0.7,3.2
			l10.9,2.6L282.8,161.1L282.8,161.1z M279.6,172.2l-12.7-4.2l0.7-2.2l10.5,3.5l1.7-5.4l2.2,0.7L279.6,172.2z M275.9,181l-2.3-1.1
			l0.9-2l2.3,1.1L275.9,181z M265.1,187.3c1,0.7,2.2,1.1,3.4,1c0.9-0.1,1.7-0.6,2.1-1.4c0.4-0.8,0.5-1.7,0.1-2.5
			c-0.6-1.1-1.5-2-2.6-2.6c-1-0.7-2.2-1.1-3.4-1c-0.9,0.1-1.6,0.6-2.1,1.4c-0.4,0.8-0.5,1.7-0.1,2.5
			C263.1,185.9,264,186.8,265.1,187.3 M264,189.4c-1.2-0.7-2.2-1.6-3.1-2.7c-0.6-0.8-1-1.8-1.1-2.8c0-1,0.2-2,0.7-2.9
			c0.7-1.3,2-2.3,3.5-2.5c1.8-0.2,3.7,0.3,5.2,1.3c1.7,0.9,3,2.3,3.8,4.1c0.5,1.4,0.4,2.9-0.4,4.2c-0.7,1.3-1.9,2.2-3.3,2.5
			C267.4,190.9,265.6,190.4,264,189.4 M263.3,193.3l2-1.2c0.9,1,1.4,2.2,1.6,3.4c0.1,1.1-0.3,2.2-1,3c-0.8,1.1-2.1,1.8-3.5,1.8
			c-1.8-0.1-3.6-0.8-5-2c-1.6-1.1-2.7-2.8-3.3-4.6c-0.4-1.4,0-2.9,0.9-4c0.7-1,1.7-1.6,2.9-1.7c1-0.1,2,0.2,2.9,0.6l-0.9,2.2
			c-0.5-0.3-1.2-0.5-1.8-0.4c-0.5,0.1-1,0.4-1.4,0.8c-0.5,0.6-0.6,1.5-0.4,2.3c0.5,1.2,1.3,2.1,2.3,2.8c0.9,0.9,2.1,1.5,3.3,1.7
			c0.8,0.1,1.6-0.3,2-0.9c0.4-0.5,0.5-1.1,0.4-1.7C264.3,194.6,263.9,193.9,263.3,193.3 M252.5,213.2l-9.3-9.9l5.9-5.8l1.6,1.7
			l-4.3,4.2l2.1,2.2l4-3.9l1.6,1.7l-4,3.9l2.5,2.7l4.4-4.4l1.6,1.7L252.5,213.2L252.5,213.2z M245.6,212.3l2.2-0.7
			c0.6,1.1,0.9,2.4,0.8,3.7c-0.2,1.1-0.7,2-1.6,2.7c-1,0.9-2.4,1.2-3.8,0.9c-1.8-0.5-3.4-1.6-4.4-3.1c-1.3-1.5-2.1-3.3-2.2-5.3
			c0-1.4,0.6-2.8,1.8-3.7c0.9-0.8,2-1.1,3.2-1c1,0.2,1.9,0.6,2.7,1.3L243,209c-0.5-0.4-1.1-0.7-1.7-0.8c-0.5,0-1.1,0.1-1.5,0.5
			c-0.6,0.5-1,1.3-0.9,2.1c0.2,1.2,0.8,2.4,1.6,3.3c0.7,1.1,1.7,1.9,2.9,2.4c0.7,0.3,1.6,0.1,2.2-0.4c0.5-0.4,0.7-0.9,0.8-1.5
			C246.3,213.8,246.1,213,245.6,212.3 M233.2,226.8l-7-11.8l1.9-1.1l8.5,5.5l-4.6-7.9l1.8-1.1l6.9,11.8l-1.9,1.2l-8.3-5.4l4.5,7.7
			L233.2,226.8z M225.6,224.5l-3.5-4l0.8,5.3L225.6,224.5z M231.6,227.6l-2.2,1l-2.2-2.4l-4,1.9l0.5,3.2l-2.1,1l-1.8-14.3l2.1-1
			L231.6,227.6z M211.3,227.1l1.6-0.5c0.6-0.1,1.2-0.4,1.8-0.7l0.5-0.7v-1.1l-0.5-0.9l-0.8-0.3c-0.6,0.1-1.2,0.2-1.8,0.4l-1.7,0.5
			L211.3,227.1z M211.3,235.4l-3.7-13.2l4.5-1.3c0.8-0.3,1.7-0.4,2.6-0.4c0.6,0.1,1.1,0.4,1.6,0.9c0.5,0.6,0.9,1.3,1.1,2
			c0.3,0.9,0.3,1.8,0,2.7c-0.3,0.8-1,1.4-1.7,1.8c0.5,0.2,1,0.4,1.4,0.8c0.7,0.6,1.3,1.2,1.8,1.8l2,2.2l-2.6,0.8l-2.4-2.4
			c-0.5-0.6-1.1-1.1-1.7-1.6l-0.8-0.4c-0.4,0-0.8,0-1.1,0.2l-0.4,0.1l1.5,5.5L211.3,235.4z M197.2,224.1l2.2-0.4l1.4,7.3
			c0.1,0.7,0.3,1.5,0.5,2.2c0.2,0.5,0.5,1,0.9,1.2c0.5,0.3,1,0.3,1.5,0.2c0.4-0.1,0.9-0.3,1.2-0.6l0.5-1.1c0-0.9-0.1-1.8-0.3-2.7
			l-1.4-7.5l2.2-0.4l1.4,7.1c0.3,1.3,0.4,2.7,0.5,4c0,0.8-0.4,1.6-0.9,2.2c-0.7,0.7-1.5,1.1-2.5,1.3c-0.9,0.2-1.9,0.2-2.8-0.1
			c-0.7-0.3-1.3-0.8-1.7-1.5c-0.6-1.3-1-2.7-1.2-4.1L197.2,224.1z M188.2,233.7l2.2-0.3c0.3,1.7,1.1,2.6,2.5,2.6
			c0.6,0,1.1-0.2,1.6-0.6c0.4-0.3,0.6-0.8,0.5-1.4l-0.2-0.8l-0.6-0.5c-0.7-0.3-1.3-0.5-2-0.6c-0.8-0.2-1.5-0.5-2.1-0.9
			c-0.5-0.3-0.8-0.8-1.1-1.3c-0.3-0.6-0.4-1.2-0.5-1.8c0-0.7,0.1-1.4,0.4-2c0.3-0.6,0.8-1.1,1.3-1.4c0.7-0.4,1.4-0.5,2.1-0.5
			c1.1-0.1,2.2,0.3,3.1,1c0.8,0.8,1.3,1.9,1.3,3.1l-2.2,0.2c0-0.6-0.3-1.1-0.7-1.5c-0.4-0.3-0.9-0.4-1.4-0.4c-0.5,0-1,0.1-1.4,0.4
			l-0.5,1l0.5,0.9c0.6,0.4,1.3,0.6,2,0.8c0.9,0.2,1.7,0.5,2.5,1c0.5,0.3,0.9,0.8,1.2,1.4c0.3,0.7,0.5,1.4,0.5,2.1
			c0.1,1.1-0.3,2.2-1,3c-0.9,0.9-2.1,1.4-3.3,1.4C190.1,238.4,188.5,236.9,188.2,233.7 M177.7,233l2.2-0.1c0.1,1.8,0.8,2.7,2.2,2.9
			c0.6,0.1,1.2-0.1,1.6-0.4c0.4-0.3,0.7-0.8,0.7-1.3l-0.1-0.8l-0.6-0.6c-0.6-0.3-1.3-0.6-1.9-0.9c-0.7-0.3-1.4-0.6-2-1.1
			c-0.4-0.4-0.7-0.9-0.9-1.4c-0.2-0.6-0.3-1.2-0.2-1.8c0-0.7,0.3-1.4,0.7-2c0.4-0.5,0.9-1,1.5-1.2c0.7-0.3,1.5-0.4,2.2-0.3
			c1.1,0,2.2,0.5,2.9,1.3c0.7,0.9,1,2,0.9,3.2l-2.2-0.1c0-0.6-0.2-1.1-0.5-1.6c-0.4-0.3-0.8-0.5-1.3-0.6c-0.5-0.1-1,0-1.4,0.3
			l-0.6,0.9l0.4,1c0.6,0.4,1.2,0.8,1.9,1c0.8,0.3,1.6,0.7,2.3,1.3c0.5,0.4,0.8,0.9,1,1.5c0.2,0.7,0.3,1.4,0.2,2.1
			c-0.1,1.1-0.5,2.1-1.3,2.9c-1,0.8-2.2,1.1-3.5,0.9C179.1,237.8,177.8,236.1,177.7,233 M173,231.5l-0.5-5.3l-2.4,4.7L173,231.5z
			 M176,237.6l-2.4-0.5l-0.4-3.3L169,233l-1.4,3l-2.3-0.4l6.8-12.7l2.3,0.4L176,237.6z M159.1,228l0.2-5.3l-3,4.3L159.1,228z
			 M161.3,234.5l-2.3-0.7l0.1-3.3l-4.2-1.5l-1.8,2.6l-2.2-0.8l8.4-11.6l2.2,0.8L161.3,234.5z M147.4,229.2l5.7-12.5l2,1l-5.6,12.5
			L147.4,229.2z M144.8,215l-4.6,7.8l1.4,0.9c0.4,0.3,0.9,0.5,1.4,0.6l1-0.1l1.1-0.9c0.5-0.6,1-1.2,1.4-1.9c0.4-0.7,0.8-1.4,1-2.2
			c0.2-0.5,0.2-1,0.1-1.5l-0.6-1.1c-0.5-0.4-1-0.8-1.5-1.1L144.8,215L144.8,215z M144.1,211.8l3.5,2.1c0.7,0.4,1.3,0.9,1.8,1.5
			c0.4,0.5,0.6,1.1,0.6,1.8c0.1,0.8,0,1.6-0.2,2.4c-0.3,1.1-0.8,2.1-1.3,3c-0.5,0.9-1.1,1.7-1.9,2.4c-0.5,0.5-1.2,1-1.9,1.3
			c-0.6,0.2-1.2,0.3-1.8,0.2c-0.7-0.1-1.5-0.4-2.1-0.8l-3.6-2.2L144.1,211.8L144.1,211.8z M127.5,216.8l7.9-11.1l1.8,1.3l-1.6,10.1
			l5.3-7.4l1.7,1.2l-7.9,11.1l-1.8-1.4l1.6-9.9l-5.2,7.3L127.5,216.8z M123.8,213.4l8.8-10.4l1.7,1.5l-8.8,10.4L123.8,213.4z
			 M111.3,200.3l8.4-11.1l1.5,1.8l-5.9,7.5l8.3-4.6l1.7,2l-5.8,7.8l8.2-5l1.5,1.7l-11.9,7l-1.6-1.8l6.1-8.4l-9,5.1L111.3,200.3
			L111.3,200.3z M103.7,189l11.4-7.3l4.3,7.1l-1.9,1.2l-3.2-5.2l-2.5,1.6l2.9,4.8l-1.9,1.2l-2.9-4.8l-3.1,2l3.3,5.3l-1.9,1.2
			L103.7,189z M98.4,178.3l12.1-6l1,2l-6.1,8.2l8.1-4l0.9,1.9l-12.1,6l-1-2.1l5.9-8l-7.9,3.9L98.4,178.3z M93.5,163.6l13-3.6
			l2.1,8.1l-2.2,0.6l-1.5-5.9l-2.9,0.8l1.4,5.4l-2.2,0.6l-1.4-5.5l-3.5,1l1.6,6.1l-2.2,0.6L93.5,163.6z M91.1,151.7l13.2-2.4
			l0.4,2.2l-5.2,0.9l0.8,4.4l5.2-0.9l0.4,2.2l-13.2,2.4l-0.4-2.2l5.8-1.1l-0.8-4.4l-5.8,1.1L91.1,151.7z M90.5,144l11.1-0.8
			l-0.2-3.3l2.3-0.2l0.6,9l-2.3,0.2l-0.2-3.3l-11.1,0.8L90.5,144z"/>
		<path class="st1" d="M272,118.3l1.3,0.2l0.8,1.1l-0.2,1.3l-0.5,0.5l-0.6,0.3l-1.3-0.2L271,121l-0.3-0.7l0.2-1.3L272,118.3
			 M273.5,101.8l-0.5-1.1l-7,3.3l-1-2.2l7-3.3l-0.8-1.8l1.5-0.7l1.3,2.8l0.4-0.3l0.7-0.4c0.8-0.4,1.8-0.4,2.6,0.1
			c0.9,0.5,1.5,1.4,1.9,2.4c0.5,1.3,0.6,2.7,0.3,4.1c-0.3,1-0.8,1.9-1.4,2.8l-0.9,1l1,3l-0.3,0.1l1.1,3.8l-1.6,0.5l-0.4-1.2
			l-7.4,2.2l-0.7-2.3l4.7-1.4l-0.2-0.5l-0.2-0.3l-0.9-0.5l-0.4-0.1l-1.1,0.4l-0.5-1.4l1.1-0.4l0.7-0.8v-1.2l-0.9-1.1l-1.4-0.2
			c-0.5,0.2-0.9,0.7-1,1.2c-0.1,0.5,0,1,0.2,1.5l0.1,0.3l0.1,0.2l-1.2,0.4l-0.1-0.2l-0.1-0.4c-0.3-0.9-0.5-1.9-0.4-2.8
			c0.1-1.2,0.9-2.2,2.1-2.6c0.8-0.3,1.7-0.1,2.4,0.4c1.5,1.1,2.2,2.9,1.8,4.7l-0.4,0.9l0.4,0.2l0.4,0.3l0.4,0.4l0.3,0.5l0.2,0.6
			L274,113l2.7-0.8l-0.5-1.9l0.2-0.1l-2.3-6.7L273.5,101.8l1.5-0.8l0.8,2.2l0.9,2.8c0.7-0.4,1.2-1,1.5-1.8c0.4-0.9,0.3-1.9-0.1-2.8
			l-0.4-0.8l-0.6-0.4c-0.4-0.2-1-0.2-1.4,0l-0.6,0.3l-0.3,0.3l0.2,0.4L273.5,101.8z M260.1,89.8c0.4-0.2,0.8-0.3,1.3-0.3
			c0.4,0.1,0.8,0.4,1.1,0.7l0.2,1.3l-0.2,0.6l-0.5,0.5l-1.3,0.3l-0.7-0.3l-0.5-0.5c-0.2-0.4-0.3-0.9-0.2-1.3L260.1,89.8 M257.4,79.4
			c0.6,0.3,1.1,0.7,1.6,1.2c0.5,0.4,0.9,0.9,1.2,1.4c0.6,0.7,0.9,1.6,1,2.6c0.1,0.8-0.3,1.6-1,2.1c-0.6,0.6-1.5,0.7-2.3,0.4
			c-0.8-0.4-1.5-1-1.9-1.7c-0.4-0.5-0.6-1-0.8-1.6l-0.1-0.7l0.9-0.7l0.2,0.6l0.4,0.7c0.8,1.1,1.5,1.3,2.2,0.8l0.5-0.9
			c-0.1-0.5-0.3-1-0.6-1.4l-1.2-1.1l-1.3-0.7L257.4,79.4L257.4,79.4z M263.3,75.9l-1,0.3l-1-0.5l-0.3-1.1l0.6-1l1.1-0.3l1,0.5l0.2,1
			L263.3,75.9 M252.5,70.4l1.2-1.2l4,4.2l0,0l0.6,0.7l0.6,0.6l0,0l2.5,2.9l0,0l4.3,6.1l-1.4,1l-4.5-6.4l0,0l-0.5-0.6l-5.8,5.2
			l-1.6-1.8l1.2-1l-0.7-0.3c-0.7-0.3-1.3-0.8-1.8-1.3c-0.6-0.6-1-1.4-1.2-2.2c-0.2-0.8,0.1-1.7,0.7-2.3c0.6-0.6,1.4-0.9,2.2-0.7
			c0.8,0.3,1.6,0.8,2.2,1.5l0.5,0.5l0.5,0.8l0.2,0.6l-0.8,0.8l-0.1-0.3l-0.5-0.7l-1.3-1l-1.1,0.3l-0.4,1.2l0.7,1.1
			c0.4,0.4,0.9,0.7,1.4,0.9l0.6,0.1l3.6-3.2l-0.6-0.7L252.5,70.4z M242.5,67.2l-2.9-2.2l1-1.4l3,2.1L242.5,67.2z M235.4,59.8
			l-2.2-1.1l0.1,0.5l-0.2,1c-0.3,0.8-1,1.4-1.9,1.5c-0.9,0-1.7-0.3-2.5-0.7c-0.9-0.4-1.6-1-2.2-1.8c-0.4-0.8-0.4-1.7,0-2.5
			c0.3-0.8,1.2-1.4,2.1-1.3c0.4,0.1,0.9,0.2,1.3,0.4l6,3L235.4,59.8z M227.7,52.7l0.7-1.6l5.9,3l3,1.7l7.1,5.1l1.3,1.2l3.2,2.6
			l-1,1.4l-1-0.8l-4.7,6.2l-1.9-1.4l4.7-6.2l-1.5-1.2v-0.1l-2.6-1.9l0.1,0.4l0.1,0.4c0,0.6-0.2,1.3-0.5,1.8c-0.4,0.6-1,1-1.7,1
			c-0.7,0-1.4-0.2-2-0.7l-0.1,0.3l-0.1,0.4v0.3l0.3,0.5l0.2,0.3l2.6,1.9l-0.9,1.4l-3.3-2.4l-0.2-0.2l-0.6-0.5l-0.3-0.8
			c-0.1-0.7,0-1.4,0.2-2.1l0.2-0.6l-1.2-0.9l0.9-1.4l2.2,1.6l0.3,0.2L238,62l1.1-0.6c0.2-0.5,0.2-1.1,0-1.6l-0.4-0.8l-2.9-2.1
			l-2-1.2L227.7,52.7L227.7,52.7z M231.3,59.1V58l-0.3-0.4l-0.9-0.5l-0.4-0.1c-0.5-0.1-1,0.2-1.2,0.7l-0.1,1.1l0.8,0.8l1.1,0.3
			C230.8,59.9,231.2,59.5,231.3,59.1 M227.7,52.7l-2.3-1.2l0.1,0.6l-0.1,1.3c-0.4,1-1.3,1.7-2.4,1.7c-0.8,0.1-1.6-0.1-2.4-0.4
			l-0.4-0.1v0.8l0.1,0.4l0.3,0.4l0.5,0.2l2.8,1.1l-0.6,1.7l-3.2-1.3l-0.6-0.3l-0.8-0.9l-0.2-0.6l-0.2-0.8l-0.1-0.8l-0.1-0.7
			l-1.5-0.6l0.6-1.6l3.8,1.5l0.9,0.2c0.6,0.1,1.1-0.3,1.2-0.8c0.2-0.5,0.2-1.1,0-1.6l-0.5-0.4l-5.2-2l0.6-1.6l8.4,3.3l2,1.1
			L227.7,52.7L227.7,52.7z M216.7,46.3l-1.2-0.4c-0.4-0.9-0.8-1.8-1.4-2.6l-0.8-0.9c-0.7-0.6-1.3-1.1-2.1-1.6l1.8-1.6
			c0.9,0.9,1.8,1.9,2.4,3.1c0.4,0.7,0.7,1.4,0.9,2.2L216.7,46.3L216.7,46.3z M207.7,51.1c-0.5,0.3-1,0.5-1.5,0.6l-1.1,0.1l-1.1-0.1
			c-1.6-0.2-2.8-1.3-3.3-2.8c-0.2-0.8-0.3-1.6-0.3-2.3l0.3,0.2l0.8,0.2c0.5,0.1,1,0.1,1.5-0.1l0.6-0.8l-0.2-1.1l-0.4-0.4l-3.3-0.6
			l0.3-1.7l9.1,1.7l-0.1,0.3l3.6,0.9l0.5,0.1l4.7,1.7l-0.6,1.6l-1.8-0.5l-2,7.6l-2.3-0.6l2-7.6l-1.8-0.5v-0.2l-0.4-0.1l-1.7,7.6
			l-2.3-0.5L207.7,51.1z M205.4,45l0.3,0.5l0.1,1.4c-0.1,0.8-0.6,1.4-1.3,1.6c-0.5,0.2-1.1,0.2-1.6,0.1h-0.2h-0.1l0.4,0.8
			c0.4,0.5,0.9,0.9,1.6,1c0.8,0.1,1.5,0,2.2-0.4c1-0.6,1.5-1.1,1.6-1.4l-0.1,0.7l0.7-3.2l-1.9-0.4v-0.2L205.4,45z M198.6,45.4
			c0,1.1-0.7,2.2-1.7,2.6c-0.5,0.2-1,0.3-1.6,0.4l-2.2-0.2l0.4,1c0.3,0.3,0.7,0.5,1.1,0.5l3.6,0.2l-0.1,1.7l-3.7-0.3
			c-0.6,0-1.1-0.1-1.6-0.4l-1.2-0.9c-0.5-0.6-0.8-1.3-0.9-2.1l-1.2-0.1l0.1-1.4l4.6,0.3c0.5,0.1,1,0,1.4-0.2c0.4-0.4,0.7-1,0.6-1.6
			c0.1-0.6-0.2-1.2-0.7-1.5c-0.5-0.4-1-0.6-1.6-0.6l-1,0.1l-0.6,0.9l0.4,0.7l0.7,0.2l0.8-0.2l0.1-0.1l0.5,1l-0.5,0.2l-1,0.1
			c-0.7,0-1.5-0.2-2.2-0.4c-0.7-0.2-1.3-0.9-1.2-1.6c0.1-0.9,0.7-1.6,1.6-1.7c0.9-0.2,1.7-0.3,2.6-0.2c1.1,0.1,2.2,0.4,3.2,1
			C198,43.3,198.6,44.3,198.6,45.4 M188.5,43.6h-0.9l0.1,4V48l-0.2,0.7l-0.2,0.4l-0.3,0.5l-0.4,0.5l-1.9-1l0.3-0.3l0.4-0.5l0.2-0.4
			v-0.3l-0.1-4l-3.2,0l0.1,5.7v0.4c0,0.6,0.1,1.3,0.4,1.9c0.4,1,1.5,1.5,2.5,1.1c0.3-0.1,0.6-0.3,0.8-0.6l0.5-0.8l1.7,1.7l-0.9,0.7
			c-0.9,0.5-1.9,0.8-2.8,0.8c-1.7,0.1-3.2-1-3.8-2.5c-0.3-0.8-0.5-1.7-0.5-2.6l-0.1-5.7h-1.3V42l10-0.2L188.5,43.6L188.5,43.6z
			 M165,52.1c-0.3,0.5-0.7,0.9-1.1,1.3L163,54l-1,0.5c-1.5,0.6-3.1,0.3-4.3-0.8c-0.5-0.6-1-1.2-1.3-1.9h0.4l0.8-0.2
			c0.5-0.1,0.9-0.4,1.3-0.8l0.1-1l-0.7-0.9l-0.5-0.2l-3.4,1.2l-0.8-1.6l3.9-1.4l3.7-1.4l4.7-1.3l0,0l5.3-1.2l0.4,1.7l-1.2,0.3
			l1.6,7.7l-2.3,0.5l-1.6-7.7l-1.2,0.3l0,0l-1.2,0.3l2,7.6l-2.3,0.6L165,52.1z M160,47.9l0.5,0.3l0.8,1.2c0.3,0.7,0.1,1.5-0.4,2.1
			c-0.4,0.4-0.9,0.7-1.4,0.8l-0.2,0.1h-0.1l0.7,0.5c0.6,0.3,1.3,0.3,1.9,0.1c0.7-0.3,1.4-0.8,1.7-1.4c0.6-1,0.9-1.7,0.7-2l0.3,0.9
			l-1-3.7h-0.1v0.1L160,47.9z M136,59.5l-1.1-1.4l7.6-4.8l0.6-0.3l10.6-4.8l0.7,1.6l-2.1,1l1,2.2l-3.7,1.7l-0.3,0.1l-0.7,0.5
			l-0.1,0.7l0.5,0.3l0.9-0.3l2.8-1.3c0.6-0.3,1.2-0.5,1.9-0.5c0.7,0,1.3,0.5,1.5,1.2c0.4,0.9,0.1,2-0.7,2.6
			c-0.9,0.7-1.8,1.3-2.9,1.7c-1.5,0.8-3.2,1.2-4.9,1l-0.8-0.3l1.1-1.8l1.7,0.5c0.9,0,1.7-0.2,2.5-0.6c0.6-0.2,1.1-0.6,1.5-1l0.3-1.1
			l-0.4-0.3l-0.7,0.1l-3,1.4c-0.6,0.3-1.3,0.5-2,0.4c-0.7-0.1-1.2-0.5-1.5-1.1l-2,1.2l0.4,0.2l0.7,0.7c0.5,0.7,0.5,1.6,0.2,2.4
			c-0.5,0.7-1.2,1.3-2,1.7c-0.8,0.5-1.7,0.8-2.7,0.8c-0.9-0.1-1.6-0.6-2-1.4c-0.5-0.8-0.5-1.7,0.1-2.5c0.3-0.3,0.6-0.6,1-0.9
			l5.8-3.5l0.3,0.4l0.1-0.7c0.4-0.6,1-1,1.6-1.2l3-1.4l-0.5-1.1l-5.4,2.5l-1.3,0.9L136,59.5z M143.6,59.8l-0.9-0.6h-0.6l-0.9,0.5
			L141,60l-0.1,1.5l0.9,0.7l1.2-0.2l0.8-0.8L143.6,59.8 M136,59.6l-1,0.7l4.4,6.4l-1.9,1.4l-4.4-6.4l-1.6,1.1l-1-1.4l2.1-1.5
			l-0.4-0.3l-0.6-0.6c-0.6-0.7-0.8-1.7-0.5-2.6c0.1-1,0.6-1.9,1.4-2.6c1.2-0.8,1.7-1.9,6.5-3.2c2.1-0.5,4.3-0.7,6.5-0.7l3.3,0.5
			l-2.2,1.2c-2.5-0.2-5.1,0-7.5,0.5c-1.9,0.5-5.6,2.4-5.8,3.7l-0.2,0.7l0.3,1.4l0.5,0.6l0.5,0.3l0.7-0.5L136,59.6z M128.4,59.7
			l0.3,1.1l-0.5,1l-1.1,0.3l-1-0.6l-0.3-1.1l0.5-1l1-0.2L128.4,59.7 M131.1,63.5l-1.8,1.6l1.8,2.1l-3.7,3.2l-0.2,0.1v0.8l0.7,0.2
			l0.4-0.2l3.3-2.8c0.4-0.3,0.9-0.5,1.4-0.5c0.5,0,1,0.2,1.4,0.7c0.6,0.7,0.6,1.7,0.2,2.4c-0.4,0.7-0.9,1.4-1.6,1.9l-0.6,0.5
			l0.7-0.1h1.3l0.9,0.3l0.9,0.5l-2,1.7c-0.4-0.3-0.9-0.6-1.4-0.8c-0.7-0.4-1.7-0.4-2.4,0.1c-0.7,0.6-1.6,1.1-2.5,1.2
			c-0.4,0-0.7,0-1.1-0.1l1.2-2.5l1.4,0.3c0.7-0.2,1.4-0.6,2-1.1c0.4-0.4,0.8-0.8,1.2-1.2c0.4-0.5,0.4-1.2,0-1.6l-0.5-0.3l-0.7,0.3
			l-2.6,2.2c-0.5,0.4-1.1,0.7-1.7,0.9c-0.6,0.1-1.2-0.1-1.5-0.6c-0.5-0.6-0.5-1.5,0-2.1l0.3-0.4l0.7-0.7l2.3-2l-1-1.2l-5.5,4.7
			l-1.1-1.4l9-7.7L131.1,63.5z M128.5,84.1l-1.3,1.6c-0.7-0.6-1.6-1.1-2.5-1.2c-0.9-0.2-1.8,0.1-2.3,0.8l-0.6,1.1l0.3,1.1l0.7,0.2
			l0.6-0.4l0.4-0.7l0.2-0.4l1.4,0.3l-0.4,0.8l-0.5,0.7c-0.5,0.7-1.3,1.3-2.2,1.6c-0.6,0.1-1.2,0-1.6-0.4c-0.7-0.6-1-1.5-0.8-2.3
			c0.3-0.9,0.7-1.8,1.4-2.5c0.8-0.9,1.9-1.5,3.1-1.5c1,0,1.9,0.2,2.8,0.6L128.5,84.1z M105.1,95.4l-1.5-0.9l4.4-7.8h-0.1l0.5-0.7
			l0.2-0.4l0,0l3.8-5.3l0,0l0.4-0.6l0.5-0.8l0,0l2.4-3.1l1.4,1l-0.8,1l6.3,5.2l-1.8,1.7l-6-5l-0.7,0.9l-1.5,2.2h0.6l1.3,0.5
			c0.7,0.4,1,1.2,0.8,2c-0.1,0.5-0.3,1-0.7,1.5l-0.1,0.2h-0.1h0.8c0.6-0.1,1.2-0.5,1.6-1c0.4-0.6,0.7-1.4,0.6-2.2
			c0-0.8-0.2-1.6-0.6-2.3l2.1,1.7c0.1,0.6,0,1.2-0.1,1.8l-0.3,1.1l-0.5,1c-0.8,1.4-2.4,2.1-4,1.9c-0.6-0.1-1.2-0.3-1.8-0.6l-1,1.7
			h0.5l0.9,0.3c0.8,0.4,1.3,1.1,1.3,2c-0.1,0.9-0.4,1.7-0.9,2.5c-0.4,0.8-1.1,1.6-1.9,2c-0.8,0.4-1.7,0.3-2.5-0.2
			c-0.8-0.4-1.3-1.3-1.1-2.2c0.1-0.4,0.3-0.9,0.5-1.3l3.4-6l0.9,0.5l0.4-0.5c0.3-0.4,0.5-0.9,0.6-1.4l-0.5-0.9l-1.1-0.3l-0.5,0.1
			l-1.4,2L105.1,95.4z M111.6,92.1l-1.1-0.1l-0.4,0.3l-0.5,0.9l-0.1,0.3c-0.1,0.5,0.2,1,0.6,1.3l1.1,0.1l0.9-0.8l0.3-1.1L111.6,92.1
			 M98.6,113.5l-0.3,1.2l7.4,1.9l-0.6,2.3l-7.4-1.9l-0.5,1.9l-1.7-0.4l1.1-4.6l-0.5,1.9h-0.6l-0.8-0.1c-0.9-0.2-1.6-0.9-2-1.7
			c-0.3-1-0.3-2,0-3c0.4-1.3,1.1-2.5,2.2-3.4c0.8-0.6,1.8-1.1,2.8-1.3l1.4-0.2v0.2l1.5-4.5l1.6,0.6l-0.7,2.1l2.8,1l-1.3,4l-0.1,0.5
			c-0.2,0.6,0.2,1.2,0.7,1.4c0.5,0.2,1,0.1,1.4-0.2c0.4-0.4,0.7-0.8,0.8-1.3c0.3-0.6,0.3-1.3,0.2-1.9l-0.6-0.6h-0.1h-0.1l0.6-1.9
			l0.8,0.2l1.1,0.2h1.1l1.1-0.1l-0.4,2.2l-2.2-0.2l0.1,0.4c0.1,0.8,0.1,1.7-0.2,2.4c-0.3,1-0.9,2-1.7,2.7c-0.8,0.7-1.9,0.9-2.9,0.5
			c-0.9-0.3-1.6-1.2-1.5-2.2c0-0.5,0.1-1.1,0.2-1.6l1-2.9l-1.5-0.5L98.6,113.5l-1.6-0.4l1.4-4.6c-0.8-0.1-1.7,0-2.3,0.5
			c-0.8,0.5-1.4,1.3-1.7,2.3l-0.2,0.9l0.2,0.7c0.2,0.4,0.6,0.8,1.1,0.9l0.7,0.1l0.6-0.1l0.2-0.7L98.6,113.5z"/>
		<path class="st2" d="M187.9,57.3c43.6,0,79,36.2,79,80.9s-35.3,80.9-79,80.9s-79-36.2-79-80.9S144.2,57.3,187.9,57.3 M187.9,56
			c44.3,0,80.2,36.8,80.2,82.2s-35.9,82.2-80.2,82.2s-80.2-36.8-80.2-82.2S143.6,56,187.9,56"/>
		<path class="st2" d="M187.9,20.8c63.3,0,114.6,52.6,114.6,117.4s-51.3,117.4-114.6,117.4S73.3,203.1,73.3,138.2
			S124.6,20.8,187.9,20.8 M187.9,22.1c62.6,0,113.3,52,113.3,116.1s-50.7,116.1-113.3,116.1s-113.3-52-113.3-116.1
			S125.3,22.1,187.9,22.1"/>
		<path class="st2" d="M187.9,25.8c60.6,0,109.7,50.3,109.7,112.4s-49.1,112.4-109.7,112.4S78.2,200.3,78.2,138.2
			S127.3,25.8,187.9,25.8 M187.9,29.8c58.4,0,105.8,48.5,105.8,108.4s-47.4,108.4-105.8,108.4S82.1,198.1,82.1,138.2
			S129.4,29.8,187.9,29.8"/>
		<path class="st2" d="M187.9,33.8c56.3,0,101.9,46.8,101.9,104.4s-45.6,104.4-101.9,104.4S85.9,195.9,85.9,138.2
			S131.6,33.8,187.9,33.8 M187.9,35c55.6,0,100.7,46.2,100.7,103.2s-45.1,103.2-100.7,103.2S87.2,195.2,87.2,138.2
			S132.2,35,187.9,35"/>
		<path class="st2" d="M187.9,61.1c41.6,0,75.3,34.5,75.3,77.1s-33.7,77.1-75.3,77.1s-75.3-34.5-75.3-77.1S146.3,61.1,187.9,61.1
			 M187.9,65.1c39.4,0,71.4,32.8,71.4,73.2s-32,73.2-71.4,73.2s-71.4-32.8-71.4-73.2S148.4,65,187.9,65.1"/>
		<path class="st2" d="M160.6,77.9H160v0.6h-5.1v0.6h-0.6v0.6h-0.6v3.5h0.6v0.6h1.7v0.6h1.1v4.1h-0.6v2.9h0.6v2.4h0.6V95h0.6v0.6
			h1.1v0.6h0.6v0.6h1.2v0.6h0.6v0.6h0.6v0.6h-0.6v1.2h-0.6v1.8h-0.6v1.2H160v2.4h-0.6v0.6h-0.6v1.2h-0.6v0.6h-0.6v0.6h-0.6v0.6h-0.6
			v1.2H156v0.6h-0.6v0.6h-0.6v0.6h-0.6v1.2h-0.6v0.6h-0.6v0.6h-0.6v0.6H152v1.2h-0.6v0.6h-0.6v0.6h-6.3v0.6h-0.6v1.2h-0.6v0.6h-0.6
			v1.2h-0.6v1.7h0.6v1.2h0.6v0.6h0.6v0.6h0.6v0.7h0.6v2.3h0.6v0.6h0.6v0.6h0.6v1.2h0.6v1.2h-1.2v0.6h-1.7v0.5h-2.3v0.6h-5.2v1.2h0.6
			v1.2h0.6v1.8h0.6v0.6h0.6v0.6h1.1v0.6h2.9v0.6h-1.1v0.6h-2.3v2.4h0.6v1.2h0.6v0.6h1.1v0.6h0.6v0.6h0.6v0.6h1.1v0.6h0.6v0.6h0.6
			v0.6h0.6v0.6h3.4v-0.6h1.2v-0.6h0.6v-0.6h0.6v-0.6h0.6v-1.8h0.6v-0.6h0.6v12.4h0.6v4.1h0.6v1.2h0.6v1.8h0.6v2.4h0.6v1.2h0.6v2.4
			h0.6v1.8h0.6v1.2h0.6v1.8h0.6v1.8h0.6v1.2h0.6v1.8h0.6v1.2h0.6v1.8h0.6v1.2h0.6v1.8h0.6v1.2h0.5v1.2h0.6v1.2h0.6v0.6h0.6v1.2h0.6
			v0.6h0.6v1.2h0.6v1.2h0.6v2.9h0.6v1.2h0.6v1.2h0.6v1.2h0.6v0.6h0.6v1.2h0.6v0.6h0.6v1.2h0.6v0.6h1.7v-0.6h1.7v-0.6h0.6v-1.2h0.6
			v-0.6h1.1v-0.6h1.2v-0.6h1.1v-2.9h0.6v-1.2h0.6v-0.6h0.6v-0.6h0.6v-0.6h0.6v-7.1h0.6V185h0.6v-1.2h0.6v-8.2h-0.6v-6.5h0.6v-0.6
			h1.2v-0.6h1.1v-0.6h0.6v-0.6h0.6v-0.6h1.1v-0.6h0.6V165h0.5v-0.6h1.1v-0.6h0.6v-0.6h0.6v-0.6h0.6v-0.6h0.6v-0.6h0.5v-0.6h0.6v-0.6
			h0.6v-0.6h0.6v-0.6h0.6v-0.6h0.6v-0.6h0.6v-0.6h0.6v-0.6h0.6v-0.6h0.6V155h0.6v-0.6h0.6v-0.6h0.6v-1.2h0.6v-0.6h0.6v-1.2h0.6v-0.6
			h1.1v-0.6h1.2v-0.6h1.1v-0.6h0.6v-0.6h0.6v-0.6h0.6v-1.2h0.6v-1.8h0.5v-1.2h0.6v-0.6h0.6v-0.6h0.6v-0.6h0.6v-0.6h1.1v0.6h4v-3.5
			h-0.6v-1.8h-0.6V135h-0.6v-0.6h-0.6v-0.6h-0.6v-3.5H214v-0.6h-0.6v-0.6h-0.6v-0.6h-0.6v-1.2h0.6v-0.6h0.6v-0.6h0.6V125h-0.6v-1.2
			h-0.6v-0.6h-0.6V122h0.6v-0.6h4v0.6h0.6v1.2h0.6v1.2h0.6v0.7h0.6v0.6h7.5v1.2H226v0.6h-0.6v0.6h-0.6v0.6h-0.6v4.7h0.6v1.2h0.6v0.6
			h1.1v-0.6h0.6v-1.8h0.6v-1.2h0.6v2.9h0.6v1.2h0.6v1.2h0.6v0.6h0.6v0.6h1.1v-1.2h0.6v-1.2h0.6v-5.3h-0.6v-1.2h0.6v-0.6h1.1v-0.6
			h1.1v-0.6h0.6v-1.2h0.6v-1.8h-0.6V122h0.6v-0.6h0.7v-1.2h0.6v-1.1h0.6V115h0.6v-0.6h1.1v-0.6h0.6v-0.6h1.1v-0.6h1.1V112h0.6v-0.6
			h0.6v-0.6h0.6v-2.3h-0.6v-0.6h-3.5V105h-0.6v-0.6h-0.6v-0.6h-1.1v0.6h-0.6v0.6H237v0.6h-3.4v0.6H233v0.6h-1.1v0.6h-0.6v0.6h-1.1
			v0.6h-0.6v0.6h-1.1v0.6h-0.6v0.6h-0.6v1.2h-0.6v1.2h-1.1v0.6h-1.7v0.6h-0.6v1.2h0.6v0.6h0.6v1.8h-1.8v0.6h-7.5v-0.6h-0.6v-0.6H214
			V115h-0.6v-1.2h-2.3v0.6h-0.6v0.6H210v5.3h-0.6v0.6h-1.2v0.6h-4v-0.6h-3.4v-0.6h-1.1v-0.6h-1.7v-0.6h-1.1v-0.6h-3.4v-0.6h-4v-0.6
			h-1.7v-0.6H187v-0.6h-1.1v-0.6h-1.1V115h-0.6v-0.6H183v-1.2h-0.6v-0.6h-0.6v-1.8h0.6v-1.8h0.6v-2.9h-0.6v-0.6h-0.6V105h-2.3v-0.6
			h-1.1v-4.1h0.6v-4.1h-0.6v-0.6h-0.6V95h-0.6v-3.6h0.6v-0.6h0.6v-0.6h0.6v-1.2h0.6v-1.8h0.6v-1.2h0.6v-2.3h-0.6v-1.2h-0.6V82H179
			v-0.6h-2.3V82h-1.1v0.6h-1.1v0.6h-0.6v0.6h-1.1v0.6H171v-0.6h-1.2v-0.6h-0.6v-0.6h-0.6V82h-0.6v-0.6h-2.3v-0.6h-0.6v-0.6h-0.6
			v-0.6H164v-0.6h-0.6v-1.2h-0.6v-0.6h-2.3L160.6,77.9L160.6,77.9z M187.9,69.3c37.1,0,67.2,30.8,67.2,68.9s-30.1,68.9-67.2,68.9
			s-67.2-30.9-67.2-68.9S150.7,69.3,187.9,69.3"/>
		<polygon class="st2" points="93.9,124.5 97.5,126.8 101,124.5 100.8,128.8 104.5,130.7 100.8,132.6 101,136.9 97.5,134.6 94,137 
			94.2,132.7 90.5,130.8 94.2,128.8 		"/>
		<polygon class="st2" points="274.2,124.5 277.8,126.8 281.3,124.5 281,128.8 284.8,130.7 281.1,132.6 281.3,136.9 277.8,134.6 
			274.3,137 274.5,132.7 270.7,130.8 274.5,128.8 		"/>
		<path class="st2" d="M187.9,57.3c43.6,0,79,36.2,79,80.9s-35.3,80.9-79,80.9s-79-36.2-79-80.9S144.2,57.3,187.9,57.3 M187.9,56
			c44.3,0,80.2,36.8,80.2,82.2s-35.9,82.2-80.2,82.2s-80.2-36.8-80.2-82.2S143.6,56,187.9,56"/>
		<path class="st2" d="M187.9,57.3c43.6,0,79,36.2,79,80.9s-35.3,80.9-79,80.9s-79-36.2-79-80.9S144.2,57.3,187.9,57.3 M187.9,56
			c44.3,0,80.2,36.8,80.2,82.2s-35.9,82.2-80.2,82.2s-80.2-36.8-80.2-82.2S143.6,56,187.9,56"/>
	</g>
</g>
</svg>
